<mxfile host="app.diagrams.net" agent="Mozilla/5.0 (Windows NT 10.0; Win64; x64) AppleWebKit/537.36 (KHTML, like Gecko) Chrome/138.0.0.0 Safari/537.36" version="28.0.7">
  <diagram name="Page-1" id="WJUbf3MV1BmUXjuX-fI7">
    <mxGraphModel dx="872" dy="465" grid="1" gridSize="10" guides="1" tooltips="1" connect="1" arrows="1" fold="1" page="1" pageScale="1" pageWidth="827" pageHeight="1169" math="0" shadow="0">
      <root>
        <mxCell id="0" />
        <mxCell id="1" parent="0" />
        <mxCell id="acLpAf-tGx8H0eG2l9ym-1" style="edgeStyle=orthogonalEdgeStyle;rounded=0;orthogonalLoop=1;jettySize=auto;html=1;exitX=1;exitY=0.5;exitDx=0;exitDy=0;" edge="1" parent="1" source="GZJcRK4JKn1q72ZsPVsu-1" target="acLpAf-tGx8H0eG2l9ym-2">
          <mxGeometry relative="1" as="geometry">
            <mxPoint x="320" y="150" as="targetPoint" />
          </mxGeometry>
        </mxCell>
        <mxCell id="GZJcRK4JKn1q72ZsPVsu-1" value="&lt;font style=&quot;font-size: 14px;&quot;&gt;Clint&lt;/font&gt;" style="rounded=0;whiteSpace=wrap;html=1;fillColor=#f5f5f5;strokeColor=#666666;fontColor=#333333;" parent="1" vertex="1">
          <mxGeometry x="100" y="120" width="120" height="60" as="geometry" />
        </mxCell>
        <mxCell id="acLpAf-tGx8H0eG2l9ym-14" style="edgeStyle=orthogonalEdgeStyle;rounded=0;orthogonalLoop=1;jettySize=auto;html=1;" edge="1" parent="1" target="acLpAf-tGx8H0eG2l9ym-7">
          <mxGeometry relative="1" as="geometry">
            <mxPoint x="460" y="230" as="sourcePoint" />
          </mxGeometry>
        </mxCell>
        <mxCell id="acLpAf-tGx8H0eG2l9ym-2" value="API Backend&amp;nbsp;" style="rounded=0;whiteSpace=wrap;html=1;fillColor=#fff2cc;strokeColor=#d6b656;" vertex="1" parent="1">
          <mxGeometry x="280" y="120" width="120" height="100" as="geometry" />
        </mxCell>
        <mxCell id="acLpAf-tGx8H0eG2l9ym-5" value="COSMOS DB (Recent Records)" style="rounded=0;whiteSpace=wrap;html=1;fillColor=#e1d5e7;strokeColor=#9673a6;" vertex="1" parent="1">
          <mxGeometry x="530" y="120" width="120" height="100" as="geometry" />
        </mxCell>
        <mxCell id="acLpAf-tGx8H0eG2l9ym-7" value="Azure Blob Storage&lt;div&gt;(Archived Data)&lt;/div&gt;" style="rounded=0;whiteSpace=wrap;html=1;fillColor=#dae8fc;strokeColor=#6c8ebf;" vertex="1" parent="1">
          <mxGeometry x="400" y="280" width="120" height="60" as="geometry" />
        </mxCell>
        <mxCell id="acLpAf-tGx8H0eG2l9ym-8" style="edgeStyle=orthogonalEdgeStyle;rounded=0;orthogonalLoop=1;jettySize=auto;html=1;entryX=0.008;entryY=0.867;entryDx=0;entryDy=0;entryPerimeter=0;" edge="1" parent="1" source="acLpAf-tGx8H0eG2l9ym-2" target="acLpAf-tGx8H0eG2l9ym-5">
          <mxGeometry relative="1" as="geometry">
            <Array as="points">
              <mxPoint x="410" y="207" />
              <mxPoint x="410" y="207" />
            </Array>
          </mxGeometry>
        </mxCell>
        <mxCell id="acLpAf-tGx8H0eG2l9ym-9" style="edgeStyle=orthogonalEdgeStyle;rounded=0;orthogonalLoop=1;jettySize=auto;html=1;entryX=0.008;entryY=0.867;entryDx=0;entryDy=0;entryPerimeter=0;" edge="1" parent="1">
          <mxGeometry relative="1" as="geometry">
            <mxPoint x="400" y="149.5" as="sourcePoint" />
            <mxPoint x="531" y="149.5" as="targetPoint" />
            <Array as="points">
              <mxPoint x="410" y="149.5" />
              <mxPoint x="410" y="149.5" />
            </Array>
          </mxGeometry>
        </mxCell>
        <mxCell id="acLpAf-tGx8H0eG2l9ym-10" value="READ" style="edgeLabel;html=1;align=center;verticalAlign=middle;resizable=0;points=[];" vertex="1" connectable="0" parent="acLpAf-tGx8H0eG2l9ym-9">
          <mxGeometry x="-0.2519" y="3" relative="1" as="geometry">
            <mxPoint x="21" y="4" as="offset" />
          </mxGeometry>
        </mxCell>
        <mxCell id="acLpAf-tGx8H0eG2l9ym-11" value="READ" style="edgeLabel;html=1;align=center;verticalAlign=middle;resizable=0;points=[];" vertex="1" connectable="0" parent="1">
          <mxGeometry x="470" y="150" as="geometry">
            <mxPoint x="-4" y="48" as="offset" />
          </mxGeometry>
        </mxCell>
      </root>
    </mxGraphModel>
  </diagram>
</mxfile>
